<svg width="357" height="385" viewBox="0 0 357 385" fill="none" xmlns="http://www.w3.org/2000/svg">
<path fill-rule="evenodd" clip-rule="evenodd" d="M145.872 99.2794C150.92 99.2794 155.012 95.1874 155.012 90.1397C155.012 85.092 150.92 81 145.872 81C140.825 81 136.733 85.092 136.733 90.1397C136.733 95.1874 140.825 99.2794 145.872 99.2794ZM0.991885 319.379C-13.2667 412.366 129.035 496.285 245.607 529.809C334.424 555.351 520.237 577.997 552.95 464.243C593.842 322.05 470.254 110.365 399.798 90.1028C329.342 69.841 253.804 129.948 209.061 169.785C194.162 183.05 167.697 193.757 138.493 205.573C79.9921 229.241 10.5027 257.355 0.991885 319.379ZM136.733 148.634C136.733 163.777 124.457 176.053 109.314 176.053C94.1704 176.053 81.8945 163.777 81.8945 148.634C81.8945 133.49 94.1704 121.215 109.314 121.215C124.457 121.215 136.733 133.49 136.733 148.634Z" fill="url(#paint0_linear_320_151)"/>
<path d="M360.967 382.982C278.32 367.165 30.3782 390.891 14.5605 244.578C-1.25714 98.2646 107.885 133.854 129.238 92.7284C150.592 51.6025 211.886 -45.6761 360.967 27.4806" stroke="#DA2F32" stroke-width="2"/>
<path d="M361.221 370.328C283.961 355.542 52.1809 377.722 37.3942 240.945C22.6076 104.169 124.635 137.439 144.597 98.9939C164.559 60.5488 221.857 -30.3889 361.221 37.9992" stroke="#DA2F32" stroke-width="2"/>
<path d="M361.243 356.883C289.801 343.21 75.4749 363.72 61.8018 237.243C48.1286 110.767 142.473 141.532 160.932 105.982C179.391 70.4315 232.374 -13.6581 361.243 49.5801" stroke="#DA2F32" stroke-width="2"/>
<defs>
<linearGradient id="paint0_linear_320_151" x1="540.706" y1="482.689" x2="120.738" y2="110.704" gradientUnits="userSpaceOnUse">
<stop stop-color="#450C0D"/>
<stop offset="1" stop-color="#A81E21"/>
</linearGradient>
</defs>
</svg>
