<svg width="362" height="385" viewBox="0 0 362 385" fill="none" xmlns="http://www.w3.org/2000/svg">
<path fill-rule="evenodd" clip-rule="evenodd" d="M215.182 99.2794C210.135 99.2794 206.043 95.1874 206.043 90.1397C206.043 85.092 210.135 81 215.182 81C220.23 81 224.322 85.092 224.322 90.1397C224.322 95.1874 220.23 99.2794 215.182 99.2794ZM360.063 319.379C374.321 412.366 232.02 496.285 115.448 529.809C26.6305 555.351 -159.182 577.997 -191.896 464.243C-232.788 322.05 -109.199 110.365 -38.7431 90.1028C31.7127 69.841 107.251 129.948 151.994 169.785C166.893 183.05 193.358 193.757 222.562 205.573C281.063 229.241 350.552 257.355 360.063 319.379ZM224.322 148.634C224.322 163.777 236.598 176.053 251.741 176.053C266.884 176.053 279.16 163.777 279.16 148.634C279.16 133.49 266.884 121.215 251.741 121.215C236.598 121.215 224.322 133.49 224.322 148.634Z" fill="url(#paint0_linear_320_198)"/>
<path d="M0.0875865 382.982C82.7348 367.165 330.677 390.891 346.494 244.578C362.312 98.2646 253.17 133.854 231.816 92.7284C210.462 51.6025 149.169 -45.6761 0.0875865 27.4806" stroke="#DA2F32" stroke-width="2"/>
<path d="M-0.166271 370.328C77.0938 355.542 308.874 377.722 323.66 240.945C338.447 104.169 236.419 137.439 216.458 98.9939C196.496 60.5488 139.198 -30.3889 -0.166271 37.9992" stroke="#DA2F32" stroke-width="2"/>
<path d="M-0.188172 356.883C71.2538 343.21 285.58 363.72 299.253 237.243C312.926 110.767 218.582 141.532 200.123 105.982C181.664 70.4315 128.681 -13.6581 -0.188172 49.5801" stroke="#DA2F32" stroke-width="2"/>
<defs>
<linearGradient id="paint0_linear_320_198" x1="-179.651" y1="482.689" x2="240.317" y2="110.704" gradientUnits="userSpaceOnUse">
<stop stop-color="#450C0D"/>
<stop offset="1" stop-color="#A81E21"/>
</linearGradient>
</defs>
</svg>
