<svg width="562" height="470" viewBox="0 0 562 470" fill="none" xmlns="http://www.w3.org/2000/svg">
<path fill-rule="evenodd" clip-rule="evenodd" d="M145.872 18.7086C150.92 18.7086 155.012 14.6166 155.012 9.56888C155.012 4.52117 150.92 0.429199 145.872 0.429199C140.825 0.429199 136.733 4.52117 136.733 9.56888C136.733 14.6166 140.825 18.7086 145.872 18.7086ZM0.991902 238.809C-13.2667 331.795 129.035 415.714 245.607 449.238C334.424 474.78 520.237 497.426 552.95 383.672C593.842 241.479 470.254 29.7938 399.798 9.53198C329.342 -10.7298 253.804 49.3774 209.061 89.2145C194.162 102.479 167.697 113.187 138.493 125.002C79.9922 148.67 10.5027 176.784 0.991902 238.809ZM136.733 68.0628C136.733 83.2059 124.457 95.4818 109.314 95.4818C94.1704 95.4818 81.8945 83.2059 81.8945 68.0628C81.8945 52.9197 94.1704 40.6438 109.314 40.6438C124.457 40.6438 136.733 52.9197 136.733 68.0628Z" fill="url(#paint0_linear_320_30)"/>
<defs>
<linearGradient id="paint0_linear_320_30" x1="540.706" y1="402.118" x2="120.738" y2="30.1332" gradientUnits="userSpaceOnUse">
<stop stop-color="#450C0D"/>
<stop offset="1" stop-color="#A81E21"/>
</linearGradient>
</defs>
</svg>
