<svg width="288" height="403" viewBox="0 0 288 403" fill="none" xmlns="http://www.w3.org/2000/svg">
<path fill-rule="evenodd" clip-rule="evenodd" d="M82.2423 221.42C63.1231 209.614 40.3376 207.01 18.231 211.041C-5.59069 215.385 -29.6657 224.237 -43.2264 244.298C-57.3562 265.201 -61.898 292.83 -53.0203 316.447C-44.7972 338.323 -20.3608 346.519 -0.296533 358.502C19.646 370.413 38.5903 389.28 61.3764 384.768C84.6649 380.157 99.1291 357.674 110.132 336.637C120.369 317.066 124.722 295.061 119.526 273.595C114.298 251.997 101.149 233.096 82.2423 221.42Z" fill="#791517"/>
<path d="M-63.7219 386.006C19.5797 370.064 269.484 393.978 285.427 246.506C301.37 99.0346 191.364 134.906 169.841 93.4546C148.318 52.0031 86.5398 -46.0456 -63.7219 27.6902" stroke="#E36365" stroke-width="1.59429"/>
<path d="M-63.9779 373.252C13.8938 358.348 247.509 380.704 262.412 242.845C277.316 104.986 174.481 138.519 154.361 99.7697C134.241 61.0201 76.4892 -30.6374 -63.9779 38.292" stroke="#E36365" stroke-width="1.59429"/>
<path d="M-63.9999 359.701C8.00767 345.919 224.03 366.591 237.812 239.114C251.593 111.636 156.502 142.644 137.897 106.813C119.292 70.9812 65.8894 -13.7741 -63.9999 49.9647" stroke="#E36365" stroke-width="1.59429"/>
</svg>
