<svg width="74" height="32" viewBox="0 0 74 32" fill="none" xmlns="http://www.w3.org/2000/svg">
<path d="M72.7035 29.9248C70.3949 29.9248 69.4948 28.8544 69.4948 26.6041V10.9568C69.4948 4.25942 66.8503 0.656605 61.4472 0.656605C58.1265 0.656605 54.0737 1.78291 48.6728 4.37138C47.4345 1.89486 45.1842 0.656605 41.9754 0.656605C38.8518 0.656605 35.2288 1.59705 30.6721 3.69739V0.376709C27.9135 1.33283 24.9309 1.67095 21.9483 1.67095V3.80935C19.1919 1.61497 16.0951 0.658844 13.3387 0.658844C6.13532 0.658844 0 6.56801 0 16.0777C0 25.6457 6.13532 31.6109 13.3387 31.6109C16.2093 31.6109 19.4181 30.5405 22.2864 28.1222C23.0186 30.3726 24.8749 31.4429 28.3658 31.4429C30.2803 31.4429 32.5866 31.1608 35.5132 30.5428V29.8665C34.9512 29.9225 34.5571 29.9225 34.107 29.9225C31.6305 29.9225 30.6744 28.8522 30.6744 26.6018V4.72293C33.2584 3.79592 35.193 3.35928 36.7425 3.35928C40.2311 3.35928 41.4694 5.55366 41.4694 9.32442V25.5338C41.4694 29.8106 43.4958 31.3869 47.3226 31.3869C49.1228 31.3869 51.2613 31.1048 53.7938 30.5428V29.8665C53.3997 29.9225 53.0615 29.9225 52.7234 29.9225C50.8672 29.9225 50.023 28.8522 50.023 26.6018V10.9568C50.023 8.64819 49.6849 6.73594 49.0669 5.15957C52.1614 3.92131 54.1319 3.35928 55.9322 3.35928C59.3648 3.35928 60.8852 5.55366 60.8852 9.32442V25.5338C60.8852 29.8665 63.0796 31.4429 67.0765 31.4429C68.991 31.4429 71.2973 31.1048 74 30.5428V29.8665C73.4357 29.9248 73.0976 29.9248 72.7035 29.9248ZM16.6034 29.0806C12.2706 29.0806 8.94995 24.7478 8.94995 16.08C8.94995 7.46815 12.2706 3.13536 16.6034 3.13536C18.2358 3.13536 20.092 3.81159 21.9506 5.04985V25.536C21.9506 26.098 22.0065 26.6623 22.0625 27.1124C20.204 28.4044 18.2918 29.0806 16.6034 29.0806Z" fill="#A81E21"/>
</svg>
